HIERARCHY
ROOT ui
{
	 OFFSET 0 0 0
	 CHANNELS 3 XPosition YPosition Z Position
	 EndSite
	 {
	 OFFSET 0 -1 0
	 }
}
ROOT li
{
	 OFFSET 0 0 0
	 CHANNELS 3 XPosition YPosition Z Position
	 EndSite
	 {
	 OFFSET 0 -1 0
	 }
}
ROOT ul
{
	 OFFSET 0 0 0
	 CHANNELS 3 XPosition YPosition Z Position
	 EndSite
	 {
	 OFFSET 0 -1 0
	 }
}
ROOT ll
{
	 OFFSET 0 0 0
	 CHANNELS 3 XPosition YPosition Z Position
	 EndSite
	 {
	 OFFSET 0 -1 0
	 }
}
ROOT tt
{
	 OFFSET 0 0 0
	 CHANNELS 3 XPosition YPosition Z Position
	 EndSite
	 {
	 OFFSET 0 -1 0
	 }
}
ROOT tb
{
	 OFFSET 0 0 0
	 CHANNELS 3 XPosition YPosition Z Position
	 EndSite
	 {
	 OFFSET 0 -1 0
	 }
}
ROOT td
{
	 OFFSET 0 0 0
	 CHANNELS 3 XPosition YPosition Z Position
	 EndSite
	 {
	 OFFSET 0 -1 0
	 }
}
ROOT v
{
	 OFFSET 0 0 0
	 CHANNELS 3 XPosition YPosition Z Position
	 EndSite
	 {
	 OFFSET 0 -1 0
	 }
}
ROOT bn
{
	 OFFSET 0 0 0
	 CHANNELS 3 XPosition YPosition Z Position
	 EndSite
	 {
	 OFFSET 0 -1 0
	 }
}
MOTION
Frames: 29
Frame Time: 0.002
-0.007283222198486328	-1.5320800244808197E-4	0		0.553466064453125	-2.5512021484375	0		-1.10572705078125	-0.1566369171142578	0		-0.588968505859375	-2.706782470703125	0		1.9019010009765625	-1.2286044921875	0		3.080534423828125	-0.23559071350097657	0		4.43998828125	0.6006781005859375	0		5.91540380859375	0.5083707885742188	0		-0.09691603088378906	5.91293310546875	0		
-0.0039128949642181395	0.0028048200607299805	0		0.5211939697265625	-2.5334951171875	0		-1.10133251953125	-0.15272671508789062	0		-0.5855108642578125	-2.702839111328125	0		1.9202164306640626	-1.2299061279296875	0		3.063340576171875	-0.26014047241210936	0		4.43101806640625	0.587995361328125	0		5.90353955078125	0.500784912109375	0		-0.22917593383789062	5.893662109375	0		
-0.0066781949996948245	-1.0940100252628326E-4	0		0.5723726806640625	-2.542502197265625	0		-1.1051146240234375	-0.1566452178955078	0		-0.590275634765625	-2.708724853515625	0		1.9025643310546876	-1.2284700927734375	0		3.10724365234375	-0.2799441528320312	0		4.4268916015625	0.5682061157226562	0		5.90798681640625	0.5088594360351563	0		-0.11081391143798829	5.90226123046875	0		
-0.006403085231781006	-8.170100301504135E-5	0		0.51877099609375	-2.538358642578125	0		-1.02987255859375	-0.15917373657226563	0		-0.5339583740234375	-2.709854736328125	0		1.9028638916015626	-1.2284044189453125	0		3.0822431640625	-0.293340087890625	0		4.44088623046875	0.5550382690429687	0		5.90888330078125	0.49098806762695313	0		-0.11065618133544922	5.902287109375	0		
-0.006153566837310791	-4.9497999250888825E-5	0		0.5688871459960938	-2.547338623046875	0		-1.1045843505859374	-0.15662474060058593	0		-0.6086293334960937	-2.707297607421875	0		1.884157470703125	-1.2269534912109374	0		3.08117041015625	-0.30923464965820313	0		4.423701171875	0.5344935913085938	0		5.894107421875	0.4904218444824219	0		-0.10952179718017578	5.90129736328125	0		
-0.008993828773498535	-0.0029504039287567138	0		0.5291231079101563	-2.547477783203125	0		-1.079367431640625	-0.1571103515625	0		-0.5616345825195312	-2.72022509765625	0		1.8933074951171875	-1.231078857421875	0		3.099675048828125	-0.344544921875	0		4.42462939453125	0.5205613403320313	0		5.8953017578125	0.4895028076171875	0		-0.21140541076660158	5.90041845703125	0		
0.0013978199958801269	0.006885870933532715	0		0.584291748046875	-2.54955615234375	0		-1.0710360107421875	-0.15023725891113282	0		-0.5912431640625	-2.71057373046875	0		1.9007052001953124	-1.2211729736328125	0		3.0938671875	-0.34436614990234377	0		4.43783447265625	0.5213574829101563	0		5.90411962890625	0.47139108276367186	0		-0.22642242431640625	5.8917685546875	0		
-0.005585845947265625	7.892099767923355E-5	0		0.573587158203125	-2.5422861328125	0		-1.0137678833007813	-0.1453513488769531	0		-0.5304332275390625	-2.727766357421875	0		1.89194287109375	-1.2169471435546875	0		3.076373779296875	-0.37597299194335937	0		4.425322265625	0.4886445922851563	0		5.88409912109375	0.4628321533203125	0		-0.24046839904785156	5.88110595703125	0		
-0.005459096908569336	1.3332800567150116E-4	0		0.5793992919921875	-2.556357666015625	0		-1.0876068115234374	-0.1427735595703125	0		-0.5703886108398437	-2.729887939453125	0		1.8882823486328124	-1.2058336181640625	0		3.099266845703125	-0.3874194030761719	0		4.4220458984375	0.4687171936035156	0		5.88104736328125	0.45388687133789063	0		-0.10785668182373047	5.9004599609375	0		
-0.00536206579208374	1.9307899475097656E-4	0		0.5814910278320312	-2.554349609375	0		-1.0038572998046875	-0.16040982055664063	0		-0.5415307006835938	-2.73940966796875	0		1.8883577880859375	-1.2058077392578126	0		3.10076318359375	-0.41645016479492186	0		4.4221513671875	0.4686975708007812	0		5.8699501953125	0.4440682373046875	0		-0.22585423278808595	5.89193798828125	0		
0.01662101936340332	-0.004192233085632324	0		0.5576055297851562	-2.548808837890625	0		-1.0874461669921875	-0.14260336303710938	0		-0.6124313354492188	-2.73387841796875	0		1.8490208740234375	-1.1749764404296874	0		3.10102734375	-0.4064637756347656	0		4.42267919921875	0.44163885498046873	0		5.88317138671875	0.45072113037109374	0		-0.09225849151611328	5.909279296875	0		
-0.005247851848602295	3.2662400603294375E-4	0		0.5586345825195312	-2.545778076171875	0		-1.0134420166015625	-0.1450196990966797	0		-0.5446476440429687	-2.743184326171875	0		1.8503785400390624	-1.157987548828125	0		3.110401123046875	-0.4386869201660156	0		4.425490234375	0.4295152587890625	0		5.8800458984375	0.4416759338378906	0		-0.2254180145263672	5.892083984375	0		
0.019746990203857423	-0.0011134179830551148	0		0.5736456909179688	-2.542033203125	0		-1.0873902587890625	-0.1423905487060547	0		-0.5498446655273438	-2.748988037109375	0		1.85035888671875	-1.157978515625	0		3.11336474609375	-0.4407829895019531	0		4.42523779296875	0.41543759155273435	0		5.87271337890625	0.4236923828125	0		-0.10699122619628906	5.90073779296875	0		
-0.0052308330535888676	4.7852200269699096E-4	0		0.5833573608398438	-2.551180908203125	0		-1.0233922729492186	-0.1425886993408203	0		-0.5211449584960938	-2.758484130859375	0		1.81487451171875	-1.130235595703125	0		3.091833984375	-0.46538623046875	0		4.41771630859375	0.38949615478515626	0		5.85672900390625	0.4238753662109375	0		-0.10676921081542969	5.90081982421875	0		
-0.008321831703186035	-0.0023752119541168215	0		0.5552299194335938	-2.55054345703125	0		-1.0983912353515626	-0.13991656494140625	0		-0.5613402099609375	-2.760553466796875	0		1.8072337646484375	-1.1090653076171875	0		3.087682861328125	-0.4703447570800781	0		4.42326806640625	0.36828085327148435	0		5.8535107421875	0.413784912109375	0		-0.10657981109619141	5.89990771484375	0		
-0.005318244934082031	6.520209908485412E-4	0		0.591870361328125	-2.560240478515625	0		-1.0135350341796876	-0.14453704833984374	0		-0.5635556030273438	-2.7623984375	0		1.7815894775390626	-1.0865194091796875	0		3.116020263671875	-0.4989793701171875	0		4.412958984375	0.35539276123046876	0		5.8682197265625	0.40131927490234376	0		-0.07598085784912109	5.91937744140625	0		
0.0017389650344848632	0.007602005958557129	0		0.57186279296875	-2.550757568359375	0		-1.0822607421875	-0.125970703125	0		-0.5617217407226562	-2.7603193359375	0		1.7848692626953124	-1.0665675048828125	0		3.09320703125	-0.48454592895507814	0		4.4156181640625	0.34223663330078125	0		5.8643173828125	0.40924002075195315	0		-0.09101221466064453	5.9097900390625	0		
-0.0055191111564636235	8.520650267601013E-4	0		0.5836713256835937	-2.548929931640625	0		-1.0255386962890625	-0.13400016784667967	0		-0.5362371215820313	-2.7737275390625	0		1.7712906494140626	-1.0382606201171876	0		3.059662353515625	-0.5038935852050781	0		4.3990244140625	0.3184768981933594	0		5.852037109375	0.4003282470703125	0		-0.23749148559570313	5.880935546875	0		
-0.005660847187042236	9.621809720993042E-4	0		0.5823673706054687	-2.550826416015625	0		-1.0325604248046876	-0.12769734954833983	0		-0.5416340942382812	-2.779487060546875	0		1.7645380859375	-1.0170935668945313	0		3.064204345703125	-0.5180297241210937	0		4.395482421875	0.2984450378417969	0		5.85668408203125	0.38905911254882813	0		-0.1059251480102539	5.90032568359375	0		
-0.008889584541320801	-0.0018589810132980348	0		0.589822021484375	-2.562904052734375	0		-1.0386280517578126	-0.1224067840576172	0		-0.5490831909179688	-2.786197265625	0		1.7539698486328126	-0.985843017578125	0		3.06851025390625	-0.5421653442382812	0		4.38989306640625	0.2774513854980469	0		5.85368310546875	0.3959452514648438	0		-0.2230035858154297	5.89188916015625	0		
-0.006015974998474121	0.0011976540088653564	0		0.565611328125	-2.557314208984375	0		-1.0388226318359375	-0.12223365783691406	0		-0.5416888427734375	-2.7992138671875	0		1.748505615234375	-0.948696533203125	0		3.066398681640625	-0.537163330078125	0		4.39659228515625	0.27119949340820315	0		5.8502861328125	0.3848280334472656	0		-0.09047785186767578	5.910255859375	0		
0.018752714157104493	-2.0330099761486055E-4	0		0.5824552001953125	-2.548580078125	0		-1.0477386474609376	-0.10787019348144532	0		-0.5548931884765625	-2.79179150390625	0		1.717802001953125	-0.9220228881835938	0		3.04479248046875	-0.554759765625	0		4.38300634765625	0.25236471557617185	0		5.85108056640625	0.3836184387207031	0		-0.105574462890625	5.90069970703125	0		
-0.006437143802642822	0.0014452489614486695	0		0.5919085083007812	-2.55769580078125	0		-1.0520230712890626	-0.1106039810180664	0		-0.5295407104492188	-2.805180419921875	0		1.746138671875	-0.8935870971679688	0		3.05873193359375	-0.54609765625	0		4.37113330078125	0.22048838806152343	0		5.864650390625	0.3721320190429688	0		-0.23690261840820312	5.881587890625	0		
0.01831241035461426	4.379000142216683E-5	0		0.5806930541992188	-2.55037353515625	0		-1.06503955078125	-0.10014927673339843	0		-0.5719947509765625	-2.808140380859375	0		1.6947830810546876	-0.84947265625	0		3.0202333984375	-0.5573386840820312	0		4.3677958984375	0.21443589782714845	0		5.85323876953125	0.3621663513183594	0		-0.10534555053710938	5.9019599609375	0		
-0.006889853000640869	0.001694430947303772	0		0.5803226928710937	-2.550281982421875	0		-1.0652740478515625	-0.09996656036376952	0		-0.5107101745605469	-2.82429150390625	0		1.699928466796875	-0.8295530395507813	0		3.01378466796875	-0.5662536010742187	0		4.36488232421875	0.18136708068847657	0		5.8492001953125	0.3700483093261719	0		-0.10526850128173829	5.90108984375	0		
-0.007122439861297607	0.0018156249523162843	0		0.590799560546875	-2.55742431640625	0		-1.06551220703125	-0.09978738403320313	0		-0.560404296875	-2.8381015625	0		1.6626544189453125	-0.78173095703125	0		3.03313525390625	-0.584717529296875	0		4.34751513671875	0.17461045837402345	0		5.849923828125	0.36682818603515627	0		-0.07476097869873047	5.92057666015625	0		
0.009574995040893555	-0.0014284119606018067	0		0.59557470703125	-2.550447998046875	0		-0.9846434936523437	-0.09533580017089843	0		-0.4600693359375	-2.85209765625	0		1.6770325927734375	-0.751008544921875	0		3.004342529296875	-0.5621534423828125	0		4.3400361328125	0.16264447021484374	0		5.85164404296875	0.36358840942382814	0		-0.07565694427490234	5.92171728515625	0		
-0.007593317985534668	0.0020411040782928468	0		0.582293212890625	-2.546094482421875	0		-1.0787567138671874	-0.08817537689208985	0		-0.5611338500976563	-2.835817626953125	0		1.6735457763671875	-0.713910888671875	0		2.9737646484375	-0.57656005859375	0		4.32844921875	0.1457637939453125	0		5.83923828125	0.3546479797363281	0		-0.23744017028808595	5.88326708984375	0		
0.0019560099840164186	-0.008070246696472168	0		0.58969140625	-2.557193115234375	0		-1.0218812255859375	-0.08323860168457031	0		-0.4910635681152344	-2.86219921875	0		1.6728719482421874	-0.685882080078125	0		2.967309326171875	-0.5854826049804688	0		4.30584228515625	0.1281155242919922	0		5.83480908203125	0.34453656005859373	0		-0.10591355895996094	5.903578125	0		
